# AST/ASF file generated using VICON BodyLanguage
# -----------------------------------------------
:version 1.10
:name VICON
:units
  mass 1.0
  length 0.45
  angle deg
:documentation
   .ast/.asf automatically generated from VICON data using
   VICON BodyBuilder and BodyLanguage model FoxedUp or BRILLIANT.MOD
:root
   order TX TY TZ RX RY RZ
   axis XYZ
   position 0 0 0  
   orientation 0 0 0 
:bonedata
  begin
     id 1 
     name lhipjoint
     direction 0.588788 -0.725889 0.355548 
     length 2.37778 
     axis 0 0 0  XYZ
  end
  begin
     id 2 
     name lfemur
     direction 0.34202 -0.939693 0  
     length 6.86393  
     axis 0 0 20  XYZ
    dof rx ry rz
    limits (-160.0 20.0)
           (-70.0 70.0)
           (-60.0 70.0)
  end
  begin
     id 3 
     name ltibia
     direction 0.34202 -0.939693 0   
     length 7.32851   
     axis 0 0 20   XYZ
    dof rx
    limits (-10.0 170.0)
  end
  begin
     id 4 
     name lfoot
     direction 0.0626533 -0.172138 0.983078   
     length 1.98929   
     axis -90 7.62852e-016 20   XYZ
    dof rx rz
    limits (-45.0 90.0)
           (-70.0 20.0)
  end
  begin
     id 5 
     name ltoes
     direction 1.53647e-011 -4.21734e-011 1   
     length 1.00479   
     axis -90 7.62852e-016 20   XYZ
    dof rx
    limits (-90.0 20.0)
  end
  begin
     id 6 
     name rhipjoint
     direction -0.59141 -0.724168 0.354705   
     length 2.38343  
     axis 0 0 0  XYZ 
  end
  begin
     id 7 
     name rfemur
     direction -0.34202 -0.939693 0   
     length 6.95589   
     axis 0 0 -20   XYZ
    dof rx ry rz
    limits (-160.0 20.0)
           (-70.0 70.0)
           (-70.0 60.0)
  end
  begin
     id 8 
     name rtibia
     direction -0.34202 -0.939693 0   
     length 7.32327   
     axis 0 0 -20   XYZ
    dof rx
    limits (-10.0 170.0)
 end
 begin
     id 9 
     name rfoot
     direction -0.0660461 -0.18146 0.981178   
     length 1.85272  
     axis -90 -7.62852e-016 -20   XYZ
    dof rx rz
    limits (-45.0 90.0)
           (-20.0 70.0)
  end
  begin
     id 10 
     name rtoes
     direction -1.53586e-011 -4.21988e-011 1   
     length 0.93746   
     axis -90 -7.62852e-016 -20   XYZ
    dof rx
    limits (-90.0 20.0)
  end
  begin
     id 11 
     name lowerback
     direction -0.0107982 0.991059 0.13299   
     length 1.98691   
     axis 0 0 0   XYZ
    dof rx ry rz
    limits (-20.0 45.0)
           (-30.0 30.0)
           (-30.0 30.0)
  end
  begin
     id 12 
     name upperback
     direction 0.0076296 0.999916 0.0104576   
     length 1.99501   
     axis 0 0 0   XYZ
    dof rx ry rz
    limits (-20.0 45.0)
           (-30.0 30.0)
           (-30.0 30.0)
  end
  begin
     id 13 
     name thorax
     direction 0.01176 0.998615 -0.0512909   
     length 2.03144   
     axis 0 0 0   XYZ
    dof rx ry rz
    limits (-20.0 45.0)
           (-30.0 30.0)
           (-30.0 30.0)
  end
  begin
     id 14 
     name lowerneck
     direction -0.0171909 0.999644 0.0204011   
     length 1.71818   
     axis 0 0 0   XYZ
    dof rx ry rz
    limits (-20.0 45.0)
           (-30.0 30.0)
           (-30.0 30.0)
  end
  begin
     id 15 
     name upperneck
     direction 0.0250902 0.997482 -0.0663316   
     length 1.66199   
     axis 0 0 0   XYZ
    dof rx ry rz
    limits (-20.0 45.0)
           (-30.0 30.0)
           (-30.0 30.0)
  end
  begin
     id 16
     name head
     direction 0.00881535 0.99956 -0.0283365  
     length 1.81545  
     axis 0 0 0   XYZ
    dof rx ry rz
    limits (-20.0 45.0)
           (-30.0 30.0)
           (-30.0 30.0)
  end
  begin
     id 17 
     name lclavicle
     direction 0.840411 0.486876 -0.238035  
     length 3.30409  
     axis 0 0 0   XYZ
    dof ry rz
    limits (-20.0 10.0)
           (0.0 20.0)
  end
  begin
     id 18 
     name lhumerus
     direction 1 -4.48977e-011 -5.16239e-027   
     length 4.62672   
     axis 180 -30 -90   XYZ
    dof rx ry rz
    limits (-60.0 90.0)
           (-90.0 90.0)
           (-90.0 90.0)
  end
  begin
     id 19
     name lradius
     direction 1 -4.48977e-011 -8.71171e-027   
     length 3.11018   
     axis 180 -30 -90   XYZ
    dof rx
    limits (-10.0 170.0)
  end
  begin
     id 20
     name lwrist
     direction 1 -4.48912e-011 -1.03764e-026   
     length 1.55509   
     axis 9.09556e-015 90 90   XYZ
    dof ry
    limits (-180.0 0.0)
 end
  begin
     id 21 
     name lhand
     direction 1 -4.49072e-011 -2.07528e-026   
     length 0.743834   
     axis 1.3242e-014 90 90   XYZ
    dof rx rz
    limits (-90.0 90.0)
           (-45.0 45.0)
  end
  begin
     id 22 
     name lfingers
     direction 1 -4.48909e-011 -4.15056e-026   
     length 0.599698   
     axis 2.64841e-014 90 90   XYZ
    dof rx
    limits (0.0 90.0)
  end
  begin
     id 23
     name lthumb
     direction 0.707107 -6.35013e-011 0.707107   
     length 0.86105   
     axis -90 45 2.85299e-015   XYZ
    dof rx rz
    limits (-45.0 45.0)
           (-45.0 45.0)
  end
  begin
     id 24 
     name rclavicle
     direction -0.835208 0.500237 -0.228452   
     length 3.2716  
     axis 0 0 0   XYZ 
    dof ry rz
    limits (-10.0 20.0)
           (-20.0 0.0)
  end
  begin
     id 25 
     name rhumerus
     direction -1 -4.48978e-011 -5.1953e-028  
     length 4.55919   
     axis 180 30 90   XYZ
    dof rx ry rz
    limits (-90.0 60.0)
           (-90.0 90.0)
           (-90.0 90.0)
  end
  begin
     id 26 
     name rradius
     direction -1 -4.48961e-011 -5.99546e-027   
     length 3.22748   
     axis 180 30 90   XYZ
    dof rx
    limits (-10.0 170.0)
  end
  begin
     id 27 
     name rwrist
     direction -1 -4.48986e-011 -1.03764e-026   
     length 1.61374   
     axis 9.09556e-015 -90 -90   XYZ
    dof ry
    limits (-180.0 0.0)
  end
  begin
     id 28
     name rhand
     direction -1 -4.4899e-011 -2.07528e-026   
     length 0.700882   
     axis 1.3242e-014 -90 -90   XYZ
    dof rx rz
    limits (-90.0 90.0)
           (-45.0 45.0)
  end
  begin
     id 29
     name rfingers
     direction -1 -4.48991e-011 -4.15056e-026   
     length 0.565069   
     axis 2.64841e-014 -90 -90   XYZ
    dof rx
    limits (0.0 90.0)
  end
  begin
     id 30
     name rthumb
     direction -0.707107 -6.34804e-011 0.707107   
     length 0.811329   
     axis -90 -45 -2.85299e-015   XYZ
    dof rx rz
    limits (-45.0 45.0)
           (-45.0 45.0)
  end
:hierarchy
  begin
    root lhipjoint rhipjoint lowerback
    lhipjoint lfemur
    lfemur ltibia
    ltibia lfoot
    lfoot ltoes
    rhipjoint rfemur
    rfemur rtibia
    rtibia rfoot
    rfoot rtoes
    lowerback upperback
    upperback thorax
    thorax lowerneck lclavicle rclavicle
    lowerneck upperneck
    upperneck head
    lclavicle lhumerus
    lhumerus lradius
    lradius lwrist
    lwrist lhand lthumb
    lhand lfingers
    rclavicle rhumerus
    rhumerus rradius
    rradius rwrist
    rwrist rhand rthumb
    rhand rfingers
  end

#!OML:ASF F:\VICON\USERDATA\INSTALL\SteveWalk\SteveWalk.ASF
:FULLY-SPECIFIED
:DEGREES
273
root -0.251961 16.3151 17.4636 18.3348 0.00616428 -0.555222
lowerback -15.796 0.984841 1.31285
upperback -5.39266 1.04698 1.2613
thorax 3.12537 0.522333 0.771021
lowerneck -3.99821 -0.578513 -0.533116
upperneck 7.895 -0.733683 -0.0419781
head 3.23269 -0.381159 0.0496213
rclavicle -3.02525e-015 -2.14687e-014
rhumerus -17.8042 -1.21806 -82.3359
rradius 38.1863
rwrist -12.2818
rhand -18.0709 -33.3322
rfingers 7.12502
rthumb 8.20187 296.847
lclavicle -3.02525e-015 -2.14687e-014
lhumerus -59.4654 32.4207 50.0774
lradius 11.4642
lwrist -41.9548
lhand -17.7464 -17.0611
lfingers 7.12502
lthumb 8.51508 12.7472
rfemur -18.5996 -7.26084 24.3652
rtibia 31.5061
rfoot -24.9114 15.8308
rtoes 9.40468
lfemur -48.932 4.06912 -22.5265
ltibia 38.8238
lfoot -9.41599 7.99421
ltoes -7.93482
274
root -0.239885 16.3119 17.6832 18.4272 -0.26535 -0.728729
lowerback -16.0686 1.10059 1.50957
upperback -5.26126 1.1608 1.2283
thorax 3.41301 0.578187 0.653229
lowerneck -4.22684 -0.635385 -0.497968
upperneck 7.85249 -0.808725 -0.0728298
head 3.26173 -0.418477 0.0297425
rclavicle 8.8863e-015 4.37326e-015
rhumerus -16.5825 -0.129493 -82.3451
rradius 39.384
rwrist -13.5076
rhand -18.767 -33.9453
rfingers 7.12502
rthumb 7.53002 296.209
lclavicle 8.8863e-015 4.37326e-015
lhumerus -60.6671 32.3068 48.9469
lradius 11.5899
lwrist -41.2058
lhand -17.2633 -16.0734
lfingers 7.12502
lthumb 8.9813 13.7154
rfemur -17.3618 -8.23481 24.3279
rtibia 30.4854
rfoot -24.7091 17.5157
rtoes 10.436
lfemur -48.8207 3.92214 -22.2048
ltibia 35.1796
lfoot -9.14494 8.09007
ltoes -8.89757
275
root -0.229894 16.3028 17.9025 18.4411 -0.670688 -0.702957
lowerback -16.1226 1.18584 1.46873
upperback -5.25521 1.28021 1.16079
thorax 3.4489 0.636834 0.628904
lowerneck -4.16313 -0.639072 -0.57473
upperneck 7.87032 -0.813875 -0.00627977
head 3.25644 -0.420827 0.0647079
rclavicle 1.86361e-016 -7.95139e-015
rhumerus -15.7364 1.16684 -82.3695
rradius 40.7291
rwrist -14.7431
rhand -19.4381 -36.3257
rfingers 7.12502
rthumb 6.88226 293.806
lclavicle 1.86361e-016 -7.95139e-015
lhumerus -61.7964 31.6093 48.4254
lradius 11.8691
lwrist -39.5121
lhand -16.7876 -15.2961
lfingers 7.12502
lthumb 9.44029 14.4725
rfemur -15.9936 -8.89235 23.9888
rtibia 29.4216
rfoot -24.6155 18.6941
rtoes 9.39783
lfemur -48.5781 3.78729 -22.0727
ltibia 31.5889
lfoot -9.05744 8.20388
ltoes -9.42764
276
root -0.221729 16.2925 18.1095 18.4659 -1.04206 -0.91812
lowerback -15.9033 1.3125 1.65138
upperback -5.41295 1.42659 1.1639
thorax 3.16975 0.70748 0.548778
lowerneck -3.79217 -0.574468 -0.640342
upperneck 7.80809 -0.731415 0.0711203
head 3.16451 -0.378932 0.10577
rclavicle -2.65564e-016 4.77083e-015
rhumerus -15.0821 2.19647 -82.2857
rradius 42.3938
rwrist -13.9367
rhand -17.7561 -44.9735
rfingers 7.12502
rthumb 8.50569 285.218
lclavicle -2.65564e-016 4.77083e-015
lhumerus -62.9637 30.7746 47.9127
lradius 12.0129
lwrist -37.7466
lhand -16.355 -14.9801
lfingers 7.12502
lthumb 9.85763 14.7691
rfemur -14.6726 -9.09036 23.9012
rtibia 28.2939
rfoot -23.9532 19.8295
rtoes 10.4307
lfemur -48.384 3.63026 -21.5892
ltibia 28.1515
lfoot -9.05805 8.10053
ltoes -7.88774
277
root -0.203322 16.2825 18.326 18.6305 -1.26898 -1.08916
lowerback -15.988 1.4362 1.93571
upperback -5.54445 1.54773 1.11073
thorax 3.08458 0.764746 0.354732
lowerneck -3.56335 -0.521969 -0.680322
upperneck 7.78131 -0.665023 0.134563
head 3.11197 -0.344856 0.136409
rclavicle 1.00138e-014 6.75868e-015
rhumerus -14.3533 2.16183 -81.9742
rradius 44.4404
rwrist -8.9602
rhand -5.79197 -67.1794
rfingers 7.12502
rthumb 20.0323 456.167
lclavicle 1.00138e-014 6.75868e-015
lhumerus -64.1575 30.2543 46.9753
lradius 11.9997
lwrist -36.6666
lhand -16.165 -14.6909
lfingers 7.12502
lthumb 10.041 15.0496
rfemur -13.4256 -9.70658 23.7731
rtibia 27.044
rfoot -23.6149 21.0834
rtoes 10.9276
lfemur -48.4175 3.37019 -21.1781
ltibia 25.1033
lfoot -9.58421 7.79458
ltoes -2.12651
278
root -0.189191 16.264 18.5483 18.8648 -1.87705 -1.23977
lowerback -16.3809 1.65661 2.0211
upperback -5.48966 1.81184 1.06803
thorax 3.35687 0.895644 0.322576
lowerneck -3.58286 -0.495578 -0.675298
upperneck 7.64 -0.62532 0.0762988
head 3.06684 -0.326878 0.118281
rclavicle -1.10729e-015 5.1684e-015
rhumerus -13.4076 2.34077 -81.7184
rradius 45.895
rwrist -5.82521
rhand 2.24963 -82.8005
rfingers 7.12502
rthumb 27.7433 470.773
lclavicle -1.10729e-015 5.1684e-015
lhumerus -65.2479 30.0734 45.8852
lradius 11.9656
lwrist -35.9943
lhand -16.2037 -14.7328
lfingers 7.12502
lthumb 10.0037 15.0095
rfemur -12.0095 -9.83219 23.4927
rtibia 25.5451
rfoot -23.7031 21.9283
rtoes 9.45272
lfemur -48.7533 3.5401 -20.9722
ltibia 22.7598
lfoot -10.0157 7.52534
ltoes 2.15732
279
root -0.184339 16.2414 18.7721 19.3895 -2.75495 -2.19846
lowerback -17.2214 2.12729 2.75697
upperback -5.30319 2.26499 1.23685
thorax 4.02301 1.12178 0.206098
lowerneck -3.79848 -0.463534 -0.591044
upperneck 7.28317 -0.578594 -0.0311813
head 2.98494 -0.304493 0.0706476
rclavicle -3.72411e-015 -4.77083e-015
rhumerus -12.0467 2.77476 -81.4755
rradius 46.776
rwrist -5.31626
rhand 4.61911 94.4429
rfingers 7.12502
rthumb 30.0066 482.029
lclavicle -3.72411e-015 -4.77083e-015
lhumerus -65.9042 29.9637 45.2819
lradius 11.9998
lwrist -34.939
lhand -16.1022 -14.7904
lfingers 7.12502
lthumb 10.1015 14.9471
rfemur -10.9339 -9.28652 24.0203
rtibia 24.2778
rfoot -23.599 22.6427
rtoes 8.47049
lfemur -49.4311 4.55109 -20.2342
ltibia 20.645
lfoot -9.70216 7.0541
ltoes 1.0139
280
root -0.160668 16.2191 19.0233 19.9775 -2.73007 -3.47467
lowerback -18.5801 2.48838 4.29381
upperback -5.04372 2.37492 1.43988
thorax 5.06672 1.18991 -0.364681
lowerneck -3.99831 -0.417585 -0.607759
upperneck 7.00052 -0.522909 0.0767682
head 2.92684 -0.273014 0.110278
rclavicle 8.01972e-015 0
rhumerus -10.8503 3.35879 -81.2889
rradius 47.5912
rwrist -6.82146
rhand 3.17913 102.743
rfingers 7.12502
rthumb 28.6317 490.569
lclavicle 8.01972e-015 0
lhumerus -66.3675 29.7202 44.9722
lradius 12.0853
lwrist -33.5675
lhand -15.8129 -14.3584
lfingers 7.12502
lthumb 10.3807 15.3653
rfemur -9.87742 -10.207 25.0695
rtibia 23.1062
rfoot -22.5282 24.3642
rtoes 10.6417
lfemur -50.3312 5.7003 -19.7376
ltibia 18.9839
lfoot -10.1852 5.41161
ltoes 3.31147
281
root -0.163346 16.2006 19.2236 19.816 -3.86413 -2.64998
lowerback -17.8286 2.56255 2.99358
upperback -5.29714 2.77007 1.17707
thorax 4.37213 1.37132 0.139737
lowerneck -3.73681 -0.416753 -0.731184
upperneck 7.08051 -0.529678 0.271198
head 2.90599 -0.27315 0.194337
rclavicle -2.628e-014 -3.97569e-015
rhumerus -10.802 4.09215 -81.1821
rradius 48.6505
rwrist -8.73052
rhand 0.304492 108.004
rfingers 7.12502
rthumb 25.882 496.262
lclavicle -2.628e-014 -3.97569e-015
lhumerus -66.9788 28.3405 45.5545
lradius 12.3669
lwrist -31.0636
lhand -15.615 -13.762
lfingers 7.12502
lthumb 10.5715 15.9521
rfemur -8.50572 -9.3296 23.7071
rtibia 22.1496
rfoot -20.7478 23.9958
rtoes 11.1201
lfemur -50.502 6.6932 -21.306
ltibia 17.6585
lfoot -10.977 4.34188
ltoes 6.95929
282
root -0.157614 16.1633 19.4367 19.8505 -4.47581 -2.82273
lowerback -17.6919 2.74412 2.93322
upperback -5.37679 3.02864 1.13093
thorax 4.22022 1.49694 0.171864
lowerneck -3.45704 -0.396231 -0.770676
upperneck 6.90262 -0.517512 0.492554
head 2.79427 -0.260727 0.27293
rclavicle -1.32533e-014 -7.95139e-015
rhumerus -10.5172 4.90688 -81.1906
rradius 49.4366
rwrist -10.0356
rhand -2.47238 110.308
rfingers 7.12502
rthumb 23.2202 498.928
lclavicle -1.32533e-014 -7.95139e-015
lhumerus -67.6679 27.6446 45.312
lradius 12.4268
lwrist -29.455
lhand -15.6961 -13.3888
lfingers 7.12502
lthumb 10.4933 16.3293
rfemur -7.32365 -8.46383 23.5362
rtibia 21.4753
rfoot -17.8601 23.9891
rtoes 14.1845
lfemur -50.9071 7.90995 -22.0214
ltibia 16.3935
lfoot -11.0402 2.7178
ltoes 7.10133
283
root -0.137392 16.1167 19.6699 19.942 -4.63982 -3.14567
lowerback -17.8973 2.89262 3.24719
upperback -5.33317 3.15652 1.14588
thorax 4.3923 1.56106 0.049689
lowerneck -3.49217 -0.373406 -0.851118
upperneck 6.79232 -0.495547 0.693509
head 2.76478 -0.245127 0.351922
rclavicle -1.30452e-014 1.59028e-015
rhumerus -9.97828 5.83425 -81.0016
rradius 50.1728
rwrist -11.1629
rhand -4.65087 110.354
rfingers 7.12502
rthumb 21.1288 499.222
lclavicle -1.30452e-014 1.59028e-015
lhumerus -68.678 27.7082 43.9923
lradius 12.2939
lwrist -29.2507
lhand -15.9165 -13.3611
lfingers 7.12502
lthumb 10.2807 16.3677
rfemur -6.27577 -8.4049 23.5153
rtibia 21.1793
rfoot -16.6135 24.4374
rtoes 14.9739
lfemur -51.2908 9.32245 -23.1102
ltibia 14.9705
lfoot -10.6968 0.0678875
ltoes 3.21158
284
root -0.115116 16.0684 19.9062 19.8762 -4.79623 -2.97356
lowerback -17.787 2.95144 3.05683
upperback -5.35504 3.27829 1.05299
thorax 4.30965 1.62016 0.078737
lowerneck -3.62862 -0.396817 -0.944804
upperneck 6.83704 -0.526983 0.79146
head 2.80669 -0.259682 0.398535
rclavicle 3.16782e-014 1.94809e-014
rhumerus -9.7837 6.6747 -80.7327
rradius 51.3969
rwrist -12.4609
rhand -6.85158 108.346
rfingers 7.12502
rthumb 19.0136 497.437
lclavicle 3.16782e-014 1.94809e-014
lhumerus -69.1413 26.8376 44.4814
lradius 12.6653
lwrist -27.4385
lhand -15.9655 -13.2511
lfingers 7.12502
lthumb 10.2335 16.48
rfemur -4.95478 -8.78346 22.9092
rtibia 20.6511
rfoot -20.123 23.4856
rtoes 2.36037
lfemur -51.5579 10.491 -24.7723
ltibia 14.3596
lfoot -11.1535 -2.35794
ltoes -5.54147
285
root -0.104791 16.0302 20.1337 19.7358 -5.05431 -2.93991
lowerback -17.4907 3.05715 2.86839
upperback -5.36598 3.46722 0.986528
thorax 4.13991 1.71263 0.139367
lowerneck -3.66414 -0.447487 -0.932308
upperneck 6.72701 -0.594264 0.783631
head 2.77675 -0.292936 0.391283
rclavicle -3.11471e-014 -4.77083e-015
rhumerus -9.82492 6.97988 -80.4954
rradius 52.5531
rwrist -12.8206
rhand -7.44238 107.803
rfingers 7.12502
rthumb 18.4453 496.949
lclavicle -3.11471e-014 -4.77083e-015
lhumerus -69.3088 25.7867 45.4978
lradius 13.1226
lwrist -25.0909
lhand -15.7599 -12.6017
lfingers 7.12502
lthumb 10.4317 17.1195
rfemur -3.75618 -8.29419 22.5167
rtibia 20.2946
rfoot -22.6991 22.1516
rtoes -6.97748
lfemur -51.4529 10.6725 -25.0152
ltibia 14.0678
lfoot -11.5664 -3.46192
ltoes -6.56979
286
root -0.102132 16.013 20.3597 19.6532 -5.24983 -3.25059
lowerback -17.3723 3.1684 2.93896
upperback -5.29892 3.60379 1.00998
thorax 4.15411 1.78078 0.149424
lowerneck -3.77659 -0.447701 -0.814353
upperneck 6.6177 -0.60202 0.801715
head 2.76047 -0.292973 0.376205
rclavicle 1.42908e-014 9.93923e-016
rhumerus -9.80485 7.08725 -80.3493
rradius 53.5174
rwrist -12.7521
rhand -7.37858 107.888
rfingers 7.12502
rthumb 18.5067 497.027
lclavicle 1.42908e-014 9.93923e-016
lhumerus -69.8956 25.697 44.7958
lradius 13.1133
lwrist -24.4597
lhand -15.6602 -11.9729
lfingers 7.12502
lthumb 10.5279 17.7435
rfemur -2.87399 -7.09427 22.5975
rtibia 20.0685
rfoot -22.2989 22.1105
rtoes -7.36648
lfemur -51.1773 9.64712 -23.4806
ltibia 14.3045
lfoot -11.6897 -3.00768
ltoes 0.144691
287
root -0.0935629 15.9977 20.5995 19.579 -5.45321 -3.11056
lowerback -17.4785 3.17596 2.60026
upperback -5.25183 3.67174 0.90705
thorax 4.24882 1.81428 0.252494
lowerneck -3.76524 -0.417149 -0.713776
upperneck 6.56674 -0.576411 0.931732
head 2.74114 -0.273493 0.401368
rclavicle 1.01784e-014 1.33186e-014
rhumerus -9.86559 6.90361 -80.2001
rradius 53.8989
rwrist -10.9218
rhand -5.30137 108.296
rfingers 7.12502
rthumb 20.5038 497.234
lclavicle 1.01784e-014 1.33186e-014
lhumerus -70.6967 25.7817 43.6122
lradius 13.0749
lwrist -24.4595
lhand -15.6774 -11.1223
lfingers 7.12502
lthumb 10.5113 18.5949
rfemur -2.10559 -6.42569 22.1438
rtibia 19.9314
rfoot -20.2814 22.9185
rtoes -5.71111
lfemur -51.0707 8.47339 -22.5785
ltibia 15.2049
lfoot -11.9765 -2.12771
ltoes 3.46753
